<svg height="48pt" viewBox="0 0 48 48" width="48pt" xmlns="http://www.w3.org/2000/svg" xmlns:xlink="http://www.w3.org/1999/xlink"><linearGradient id="a" gradientUnits="userSpaceOnUse" x1=".5" x2="47.5" y1="24" y2="24"><stop offset="0" stop-color="#ffe031"/><stop offset=".98695652174" stop-color="#fc5252"/></linearGradient><path d="m42.418 38.598c3.272-4.135 5.082-9.275 5.082-14.598 0-6.23-2.48-12.21-6.88-16.62-4.41-4.4-10.39-6.88-16.62-6.88s-12.21 2.48-16.62 6.88c-4.4 4.41-6.88 10.39-6.88 16.62 0 6.23 2.48 12.21 6.88 16.62 4.41 4.4 10.39 6.88 16.62 6.88 5.8 0 11.383-2.149 15.684-5.996l3.492 3.492c.78.78 2.046.782 2.824.004.778-.778.776-2.044-.004-2.824zm-17.203-28.596c.354-.011.759.064 1.166.228 1.085.439 1.79 1.362 1.582 2.067s-1.259.913-2.344.474c-1.085-.438-1.79-1.347-1.582-2.052.13-.441.588-.699 1.178-.717zm-6.61-3.107c-.02.786-1.391.102-1.451 1.001-1.52-.676.117 1.033-.035 1.192h-.01l-.113-.012c-.073-.026-.18-.071-.338-.168-.32.256-.547.594-.736.969-1.268 1.972-1.884 3.616-2.301 5.693-.532 2.653-.663 5.754-.609 8.369.057.738.241 1.433.845 1.899 1.702 1.398 3.117 3.165 4.545 4.848 2.813 3.813 5.279 7.065 6.885 10.484-.177-1.149-.408-2.976-.517-4.389-.976-4.977-3.542-7.61-3.77-13.17-.054-1.375 1.431-4.154 3.09-5.613 2.504-2.201 4.885-1.646 8.08-1.174.017.003.039.009.057.012.106.018.22.036.326.057.853.076 2.571.409 2.879-.18-1.178-1.003-2.873-1.133-4.307-1.527-.227-.042-.51-.088-.789-.114l-1.404-.314-.35-.09v.01l-5.027-.979c-.08-.073-.168-.146-.248-.201l4.904.607v-.023c.173.039.344.07.518.09v.012l3.464.64c.598.223 1.236.391 1.834.428.988.144 2.241 1.617 2.565 1.687-.159-1.55-1.707-2.244-2.992-2.699-1.502-.73-3.745-.704-3.983-2.722-.063-.141-.126-.281-.203-.416l-.584-.776.022-.012c-.799-.942-1.922-1.628-3.116-1.89-1.184-.409-2.514-.816-3.767-.979-.425 1.252-.902-.992-1.924-.326-.896.106-.772.343-1.44-.224zm-14.105 17.105c0-5.17 2.06-10.13 5.71-13.79 3.66-3.65 8.62-5.71 13.79-5.71s10.13 2.06 13.79 5.71c3.65 3.66 5.71 8.62 5.71 13.79s-2.06 10.13-5.71 13.79c-3.66 3.65-8.62 5.71-13.79 5.71s-10.13-2.06-13.79-5.71c-3.65-3.66-5.71-8.62-5.71-13.79z" fill="url(#a)" fill-rule="evenodd"/></svg>